<svg xmlns="http://www.w3.org/2000/svg" viewBox="0 -1005 5240.0 1300" fill="currentColor">
  <title>Quantuple</title>
  <g transform="scale(1 -1)">
    <path transform="translate(0.00 0)" d="M406 -69 240 221H341L507 -69ZM300 -16Q215 -16 155.5 27.0Q96 70 65.0 153.0Q34 236 34 354Q34 474 65.0 557.0Q96 640 155.5 683.0Q215 726 300 726Q385 726 444.5 683.0Q504 640 535.0 557.0Q566 474 566 354Q566 236 535.0 153.0Q504 70 444.5 27.0Q385 -16 300 -16ZM300 96Q345 96 376.0 124.0Q407 152 422.5 209.5Q438 267 438 354Q438 441 422.5 499.0Q407 557 376.0 585.5Q345 614 300 614Q255 614 224.0 585.5Q193 557 177.5 499.0Q162 441 162 354Q162 267 177.5 209.5Q193 152 224.0 124.0Q255 96 300 96Z"/>
    <path transform="translate(580.00 0)" d="M246 -12Q169 -12 124.5 39.5Q80 91 80 186V534H198V217Q198 150 220.5 119.5Q243 89 289 89Q337 89 367.5 123.5Q398 158 398 221V534H517V0H407L405 147L420 142Q407 68 362.0 28.0Q317 -12 246 -12Z"/>
    <path transform="translate(1160.00 0)" d="M226 -12Q176 -12 136.0 6.0Q96 24 72.0 57.5Q48 91 48 137Q48 205 90.5 242.5Q133 280 213 297L380 332Q380 388 356.5 417.5Q333 447 283 447Q237 447 212.0 425.0Q187 403 179 367L56 374Q71 451 130.5 498.5Q190 546 281 546Q390 546 444.0 488.0Q498 430 498 326V127Q498 107 506.0 99.5Q514 92 528 92H554V0Q548 -1 534.5 -2.5Q521 -4 507 -4Q469 -4 442.5 9.0Q416 22 402.0 48.5Q388 75 387 114H402Q397 78 373.0 49.5Q349 21 311.5 4.5Q274 -12 226 -12ZM247 80Q290 80 320.0 95.5Q350 111 365.0 139.5Q380 168 380 208V244L247 216Q204 208 187.5 190.5Q171 173 171 144Q171 114 191.0 97.0Q211 80 247 80Z"/>
    <path transform="translate(1740.00 0)" d="M76 0V534H184L188 391L176 398Q185 449 210.0 481.5Q235 514 271.5 530.0Q308 546 351 546Q410 546 448.0 520.0Q486 494 505.0 448.5Q524 403 524 345V0H406V317Q406 381 382.5 413.0Q359 445 311 445Q279 445 252.5 430.0Q226 415 210.0 385.5Q194 356 194 313V0Z"/>
    <path transform="translate(2320.00 0)" d="M375 0Q289 0 248.0 39.5Q207 79 207 160V659H325V169Q325 132 343.0 114.0Q361 96 396 96H528V0ZM46 438V534H528V438Z"/>
    <path transform="translate(2900.00 0)" d="M246 -12Q169 -12 124.5 39.5Q80 91 80 186V534H198V217Q198 150 220.5 119.5Q243 89 289 89Q337 89 367.5 123.5Q398 158 398 221V534H517V0H407L405 147L420 142Q407 68 362.0 28.0Q317 -12 246 -12Z"/>
    <path transform="translate(3480.00 0)" d="M64 -150V534H177L180 412L168 418Q188 480 232.5 513.0Q277 546 340 546Q414 546 462.5 508.0Q511 470 534.5 407.0Q558 344 558 267Q558 190 534.5 127.0Q511 64 462.5 26.0Q414 -12 340 -12Q299 -12 264.5 1.5Q230 15 205.5 40.5Q181 66 169 104L182 118V-150ZM310 94Q369 94 402.0 137.5Q435 181 435 267Q435 353 402.0 396.5Q369 440 310 440Q272 440 243.5 421.0Q215 402 198.5 363.5Q182 325 182 267Q182 209 198.0 170.5Q214 132 243.0 113.0Q272 94 310 94Z"/>
    <path transform="translate(4060.00 0)" d="M255 0V550Q255 580 238.5 597.0Q222 614 191 614H72V710H209Q290 710 331.5 668.5Q373 627 373 545V0ZM52 0V96H548V0Z"/>
    <path transform="translate(4640.00 0)" d="M305 -12Q230 -12 173.5 22.0Q117 56 86.0 119.0Q55 182 55 267Q55 351 86.0 413.5Q117 476 172.5 511.0Q228 546 303 546Q375 546 430.5 512.0Q486 478 517.5 415.0Q549 352 549 265V234H177Q182 166 216.5 130.0Q251 94 307 94Q350 94 378.5 114.5Q407 135 418 168L539 159Q514 79 454.0 33.5Q394 -12 305 -12ZM178 320H421Q416 381 384.0 410.5Q352 440 302 440Q252 440 219.5 409.5Q187 379 178 320Z"/>
  </g>
</svg>
